# This file uses centimeters as units for non-parametric coordinates.

g default
v 0.107500 -0.127482 0.011321
v 0.112500 -0.122497 0.011321
v 0.112500 0.037518 0.011321
v 0.022500 0.127488 0.011321
v 0.097332 0.087505 0.011321
v 0.046593 -0.075005 0.011321
v 0.066365 0.025491 0.011321
v 0.105649 0.071945 0.011321
v 0.086140 0.101128 0.011321
v 0.072501 0.112320 0.011321
v 0.110771 0.055046 0.011321
v 0.064500 0.032277 0.011321
v 0.062459 0.033948 0.011321
v 0.065889 0.030081 0.011321
v 0.059656 0.034889 0.011321
v 0.066481 0.027748 0.011321
v 0.040058 0.125774 0.011321
v 0.056942 0.120652 0.011321
v 0.112119 -0.124410 0.011321
v 0.111036 -0.126017 0.011321
v 0.109413 -0.127101 0.011321
v 0.046188 -0.076400 0.011321
v 0.043523 -0.079851 0.011321
v 0.044619 -0.078879 0.011321
v 0.042422 -0.080543 0.011321
v 0.045522 -0.077694 0.011321
v 0.038543 -0.082283 0.011321
v 0.030256 -0.084862 0.011321
v 0.017313 -0.087014 0.011321
v -0.000000 -0.087939 0.011321
v 0.046593 -0.075005 0.000010
v 0.066365 0.025491 0.000010
v 0.064500 0.032277 0.000010
v 0.062459 0.033948 0.000010
v 0.065889 0.030081 0.000010
v 0.059656 0.034889 0.000010
v 0.066481 0.027748 0.000010
v 0.046188 -0.076400 0.000010
v 0.043523 -0.079851 0.000010
v 0.044619 -0.078879 0.000010
v 0.042422 -0.080543 0.000010
v 0.045522 -0.077694 0.000010
v 0.038543 -0.082283 0.000010
v 0.030256 -0.084862 0.000010
v 0.017313 -0.087014 0.000010
v -0.000000 -0.087904 0.000010
v 0.107500 -0.127482 0.000010
v 0.112500 -0.122497 0.000010
v 0.112500 0.037518 0.000010
v 0.022500 0.127488 0.000010
v 0.097332 0.087505 0.000010
v 0.105649 0.071945 0.000010
v 0.086140 0.101128 0.000010
v 0.072501 0.112320 0.000010
v 0.110771 0.055046 0.000010
v 0.040058 0.125774 0.000010
v 0.056942 0.120652 0.000010
v 0.112119 -0.124410 0.000010
v 0.111036 -0.126017 0.000010
v 0.109413 -0.127101 0.000010
v -0.000000 -0.127482 0.011321
v -0.000000 -0.127482 0.000010
v 0.000000 0.127488 0.011321
v 0.000000 0.127488 0.000010
v 0.000000 0.034932 0.011321
v 0.000000 0.034932 0.000010
v 0.042117 -0.080665 0.011321
v 0.042117 -0.080665 0.000010
v -0.107500 -0.127482 0.011321
v -0.112500 -0.122497 0.011321
v -0.112500 0.037518 0.011321
v -0.022500 0.127488 0.011321
v -0.097332 0.087505 0.011321
v -0.046593 -0.075005 0.011321
v -0.066365 0.025491 0.011321
v -0.105649 0.071945 0.011321
v -0.086140 0.101128 0.011321
v -0.072501 0.112320 0.011321
v -0.110771 0.055046 0.011321
v -0.064500 0.032277 0.011321
v -0.062459 0.033948 0.011321
v -0.065889 0.030081 0.011321
v -0.059656 0.034889 0.011321
v -0.066481 0.027748 0.011321
v -0.040058 0.125774 0.011321
v -0.056942 0.120652 0.011321
v -0.112119 -0.124410 0.011321
v -0.111036 -0.126017 0.011321
v -0.109413 -0.127101 0.011321
v -0.046188 -0.076400 0.011321
v -0.043523 -0.079851 0.011321
v -0.044619 -0.078879 0.011321
v -0.042422 -0.080543 0.011321
v -0.045522 -0.077694 0.011321
v -0.038543 -0.082283 0.011321
v -0.030256 -0.084862 0.011321
v -0.017313 -0.087014 0.011321
v -0.046593 -0.075005 0.000010
v -0.066365 0.025491 0.000010
v -0.064500 0.032277 0.000010
v -0.062459 0.033948 0.000010
v -0.065889 0.030081 0.000010
v -0.059656 0.034889 0.000010
v -0.066481 0.027748 0.000010
v -0.046188 -0.076400 0.000010
v -0.043523 -0.079851 0.000010
v -0.044619 -0.078879 0.000010
v -0.042422 -0.080543 0.000010
v -0.045522 -0.077694 0.000010
v -0.038543 -0.082283 0.000010
v -0.030256 -0.084862 0.000010
v -0.017313 -0.087014 0.000010
v -0.107500 -0.127482 0.000010
v -0.112500 -0.122497 0.000010
v -0.112500 0.037518 0.000010
v -0.022500 0.127488 0.000010
v -0.097332 0.087505 0.000010
v -0.105649 0.071945 0.000010
v -0.086140 0.101128 0.000010
v -0.072501 0.112320 0.000010
v -0.110771 0.055046 0.000010
v -0.040058 0.125774 0.000010
v -0.056942 0.120652 0.000010
v -0.112119 -0.124410 0.000010
v -0.111036 -0.126017 0.000010
v -0.109413 -0.127101 0.000010
v -0.042117 -0.080665 0.011321
v -0.042117 -0.080665 0.000010
vt 0.917523 0.311347
vt 0.894048 0.311340
vt 0.893825 0.098332
vt 0.917314 0.098307
vt 0.917523 0.316154
vt 0.894129 0.315971
vt 0.893848 0.095312
vt 0.917283 0.095287
vt 0.917388 0.321114
vt 0.894178 0.320860
vt 0.893857 0.092320
vt 0.917266 0.092293
vt 0.917255 0.326458
vt 0.894170 0.326087
vt 0.893869 0.089246
vt 0.917244 0.089215
vt 0.917121 0.331870
vt 0.894090 0.331392
vt 0.893852 0.086226
vt 0.917250 0.086194
vt 0.893851 0.083544
vt 0.917242 0.083511
vt 0.461807 0.985653
vt 0.437658 0.985621
vt 0.437822 0.643865
vt 0.461882 0.643855
vt 0.461807 0.989729
vt 0.437677 0.989747
vt 0.438522 0.607414
vt 0.461197 0.607415
vt 0.461806 0.993781
vt 0.437687 0.993859
vt 0.439214 0.573164
vt 0.460501 0.573158
vt 0.461827 0.997896
vt 0.437703 0.998008
vt 0.439791 0.541067
vt 0.459888 0.541056
vt 0.440195 0.510680
vt 0.459444 0.510674
vt 0.440335 0.481051
vt 0.459304 0.481052
vt 0.539238 0.088734
vt 0.539029 0.301773
vt 0.515540 0.301749
vt 0.515763 0.088741
vt 0.515564 0.304769
vt 0.538998 0.304794
vt 0.515844 0.084110
vt 0.539238 0.083927
vt 0.515572 0.307761
vt 0.538982 0.307788
vt 0.515893 0.079221
vt 0.539104 0.078967
vt 0.515585 0.310835
vt 0.538959 0.310866
vt 0.515886 0.073994
vt 0.538971 0.073623
vt 0.515567 0.313855
vt 0.538966 0.313887
vt 0.515805 0.068689
vt 0.538836 0.068211
vt 0.515566 0.316537
vt 0.538957 0.316570
vt 0.026057 0.471824
vt 0.026118 0.813812
vt 0.002068 0.813818
vt 0.001889 0.471829
vt 0.002845 0.850090
vt 0.025389 0.850084
vt 0.001903 0.467680
vt 0.026057 0.467748
vt 0.003548 0.884156
vt 0.024689 0.884163
vt 0.001924 0.463542
vt 0.026064 0.463620
vt 0.004028 0.916131
vt 0.024145 0.916148
vt 0.001934 0.459368
vt 0.026077 0.459434
vt 0.004383 0.946692
vt 0.023746 0.946697
vt 0.004477 0.976733
vt 0.023665 0.976729
vt 0.481155 0.353433
vt 0.382885 0.327813
vt 0.340771 0.113774
vt 0.481154 0.012611
vt 0.477480 0.390783
vt 0.383131 0.332625
vt 0.339908 0.110803
vt 0.480343 0.008535
vt 0.466571 0.426793
vt 0.381868 0.337600
vt 0.338490 0.108047
vt 0.478035 0.005112
vt 0.448851 0.459946
vt 0.378909 0.342282
vt 0.336566 0.105525
vt 0.474580 0.002803
vt 0.425008 0.488967
vt 0.374561 0.345843
vt 0.334232 0.103453
vt 0.470504 0.001992
vt 0.395958 0.512810
vt 0.368589 0.347850
vt 0.331886 0.101980
vt 0.331237 0.101722
vt 0.241525 0.001998
vt 0.362815 0.530560
vt 0.241523 0.347958
vt 0.323624 0.098275
vt 0.326852 0.541471
vt 0.305971 0.092780
vt 0.289451 0.545122
vt 0.278400 0.088195
vt 0.241525 0.545121
vt 0.241525 0.086224
vt 0.193599 0.545122
vt 0.204650 0.088195
vt 0.156198 0.541471
vt 0.177079 0.092781
vt 0.120235 0.530560
vt 0.159426 0.098275
vt 0.087092 0.512810
vt 0.114458 0.347862
vt 0.151814 0.101723
vt 0.058042 0.488967
vt 0.108486 0.345857
vt 0.012544 0.001992
vt 0.151165 0.101981
vt 0.148818 0.103455
vt 0.034200 0.459947
vt 0.104138 0.342297
vt 0.008468 0.002803
vt 0.146485 0.105526
vt 0.016481 0.426800
vt 0.101179 0.337619
vt 0.005013 0.005112
vt 0.144561 0.108049
vt 0.005572 0.390801
vt 0.099917 0.332649
vt 0.002704 0.008534
vt 0.143143 0.110805
vt 0.001889 0.353462
vt 0.100164 0.327841
vt 0.001893 0.012610
vt 0.142280 0.113777
vt 0.946593 0.469575
vt 0.946592 0.810398
vt 0.806209 0.709235
vt 0.848323 0.495195
vt 0.945781 0.814473
vt 0.805345 0.712207
vt 0.942918 0.432226
vt 0.848569 0.490384
vt 0.943473 0.817896
vt 0.803927 0.714963
vt 0.932010 0.396218
vt 0.847306 0.485410
vt 0.940018 0.820204
vt 0.802003 0.717485
vt 0.914290 0.363065
vt 0.844347 0.480728
vt 0.935942 0.821015
vt 0.799669 0.719556
vt 0.890447 0.334042
vt 0.839998 0.477166
vt 0.706963 0.821014
vt 0.796674 0.721288
vt 0.797323 0.721030
vt 0.861396 0.310199
vt 0.834027 0.475159
vt 0.789061 0.724735
vt 0.828253 0.292449
vt 0.706960 0.475051
vt 0.771408 0.730230
vt 0.792289 0.281538
vt 0.743838 0.734816
vt 0.754889 0.277887
vt 0.706963 0.736713
vt 0.706963 0.277887
vt 0.670088 0.734816
vt 0.659037 0.277887
vt 0.642518 0.730229
vt 0.621636 0.281538
vt 0.624865 0.724734
vt 0.585673 0.292449
vt 0.617252 0.721287
vt 0.579895 0.475146
vt 0.552529 0.310198
vt 0.477981 0.821015
vt 0.614257 0.719555
vt 0.616603 0.721029
vt 0.573924 0.477151
vt 0.523479 0.334041
vt 0.473905 0.820205
vt 0.611924 0.717484
vt 0.569575 0.480709
vt 0.499637 0.363062
vt 0.470450 0.817896
vt 0.610000 0.714960
vt 0.566617 0.485387
vt 0.481919 0.396209
vt 0.468141 0.814474
vt 0.608582 0.712204
vt 0.565355 0.490359
vt 0.471009 0.432207
vt 0.467330 0.810398
vt 0.607719 0.709232
vt 0.565602 0.495167
vt 0.467327 0.469546
vt 0.485910 0.074429
vt 0.509874 0.074429
vt 0.509912 0.080616
vt 0.485872 0.080616
vt 0.509913 0.207469
vt 0.485871 0.207469
vt 0.485872 0.334358
vt 0.509912 0.334358
vt 0.485932 0.340677
vt 0.509852 0.340677
vt 0.889979 0.136466
vt 0.866016 0.136466
vt 0.866010 0.128140
vt 0.866012 0.127445
vt 0.889989 0.127458
vt 0.889858 0.154643
vt 0.866138 0.154643
vt 0.889873 0.182046
vt 0.866123 0.182046
vt 0.889920 0.218593
vt 0.866074 0.218597
vt 0.889902 0.255176
vt 0.866131 0.255174
vt 0.889755 0.282610
vt 0.866237 0.282577
vt 0.889663 0.300639
vt 0.866233 0.300535
vt 0.889568 0.309400
vt 0.866252 0.309313
vt 0.866253 0.308634
vt 0.921689 0.158682
vt 0.945669 0.158668
vt 0.945703 0.206608
vt 0.921640 0.206598
vt 0.921689 0.121283
vt 0.945177 0.121354
vt 0.921703 0.254536
vt 0.945639 0.254536
vt 0.922466 0.085730
vt 0.944877 0.085790
vt 0.945307 0.291776
vt 0.922035 0.291776
vt 0.922726 0.051573
vt 0.944616 0.051573
vt 0.944877 0.327427
vt 0.922465 0.327427
vt 0.944616 0.361643
vt 0.922726 0.361643
vt 0.033473 0.491654
vt 0.057437 0.491654
vt 0.057493 0.495762
vt 0.033417 0.495762
vt 0.057497 0.724709
vt 0.033413 0.724709
vt 0.057493 0.953659
vt 0.033417 0.953659
vt 0.033465 0.957788
vt 0.057445 0.957788
vn -0.981779 0.190029 0.000000
vn -0.981779 0.190029 0.000000
vn -0.980951 0.194256 0.000000
vn -0.980951 0.194256 0.000000
vn -0.916200 -0.400720 0.000000
vn -0.916200 -0.400720 0.000000
vn -0.748063 -0.663628 0.000000
vn -0.748063 -0.663628 0.000000
vn -0.474528 -0.880241 0.000000
vn -0.474528 -0.880241 0.000000
vn -0.994668 -0.103126 0.000000
vn -0.994668 -0.103126 0.000000
vn -0.015756 -0.999876 0.000000
vn -0.015756 -0.999876 0.000000
vn -0.929047 0.369963 0.000000
vn -0.929047 0.369963 0.000000
vn -0.844950 0.534845 0.000000
vn -0.844950 0.534845 0.000000
vn -0.438749 0.898610 -0.000458
vn -0.438749 0.898610 -0.000458
vn -0.603865 0.797086 0.000000
vn -0.603865 0.797086 0.000000
vn -0.733536 0.679650 0.000000
vn -0.733536 0.679650 0.000000
vn -0.334556 0.942376 -0.000197
vn -0.334556 0.942376 -0.000197
vn -0.409259 0.912418 -0.000597
vn -0.217501 0.976060 0.000000
vn -0.217501 0.976060 0.000000
vn -0.100596 0.994927 0.000873
vn -0.100596 0.994927 0.000873
vn 0.000000 0.999999 0.001533
vn 0.000000 0.999999 0.001533
vn 0.999997 -0.002350 0.000000
vn 0.999997 -0.002350 0.000000
vn 0.999953 0.009740 0.000000
vn 0.999953 0.009740 0.000000
vn 0.042750 0.999086 0.000000
vn 0.042750 0.999086 0.000000
vn 0.000000 1.000000 0.000000
vn 0.000000 1.000000 0.000000
vn 0.706890 0.707324 0.000000
vn 0.706890 0.707324 0.000000
vn 0.831338 0.555768 0.000000
vn 0.831338 0.555768 0.000000
vn 0.923943 0.382531 0.000000
vn 0.923943 0.382531 0.000000
vn 0.555871 0.831268 -0.000000
vn 0.555871 0.831268 -0.000000
vn 0.383056 0.923725 -0.000000
vn 0.383056 0.923725 -0.000000
vn 0.980769 0.195174 0.000000
vn 0.980769 0.195174 0.000000
vn 0.194672 0.980868 0.000000
vn 0.194672 0.980868 0.000000
vn 0.923287 -0.384112 0.000000
vn 0.923286 -0.384112 0.000000
vn 0.705098 -0.709110 0.000000
vn 0.705098 -0.709110 0.000000
vn 0.382714 -0.923867 0.000000
vn 0.382714 -0.923867 0.000000
vn 0.003479 -0.999994 0.000000
vn 0.003479 -0.999994 0.000000
vn 0.000000 -1.000000 0.000000
vn 0.000000 -1.000000 0.000000
vn 0.000000 -1.000000 0.000000
vn 0.000000 -1.000000 0.000000
vn 0.000000 0.000000 1.000000
vn 0.000000 0.000000 1.000000
vn -0.000000 -0.000000 1.000000
vn -0.000000 -0.000000 1.000000
vn 0.000000 -0.000000 1.000000
vn 0.000000 -0.000000 1.000000
vn 0.000000 0.000000 1.000000
vn 0.000000 0.000000 1.000000
vn 0.000000 0.000000 1.000000
vn -0.000000 0.000000 1.000000
vn 0.000000 0.000000 1.000000
vn 0.000000 0.000000 1.000000
vn 0.000000 0.000000 1.000000
vn 0.000000 0.000000 1.000000
vn 0.000000 0.000000 1.000000
vn 0.000000 -0.000000 1.000000
vn -0.000000 0.000000 1.000000
vn -0.000000 0.000000 1.000000
vn 0.000000 -0.000000 1.000000
vn -0.000000 0.000000 1.000000
vn 0.000000 0.000000 1.000000
vn -0.000000 0.000000 1.000000
vn -0.000000 -0.000000 1.000000
vn 0.000000 0.000000 1.000000
vn 0.000001 0.000001 1.000000
vn 0.000001 0.000001 1.000000
vn -0.000000 0.000000 1.000000
vn -0.000000 0.000000 1.000000
vn -0.000000 0.000000 1.000000
vn -0.000000 0.000000 1.000000
vn -0.000000 0.000000 1.000000
vn 0.000000 0.000000 1.000000
vn -0.000000 0.000000 1.000000
vn -0.000000 0.000000 1.000000
vn 0.000000 0.000000 -1.000000
vn 0.000000 0.000000 -1.000000
vn 0.000000 0.000000 -1.000000
vn 0.000000 0.000000 -1.000000
vn 0.000000 0.000000 -1.000000
vn 0.000000 0.000000 -1.000000
vn 0.000000 0.000000 -1.000000
vn 0.000000 0.000000 -1.000000
vn 0.000000 0.000000 -1.000000
vn 0.000000 0.000000 -1.000000
vn 0.000000 0.000000 -1.000000
vn 0.000000 0.000000 -1.000000
vn 0.000000 0.000000 -1.000000
vn 0.000000 0.000000 -1.000000
vn 0.000000 0.000000 -1.000000
vn 0.000000 0.000000 -1.000000
vn -0.000000 0.000000 -1.000000
vn 0.000000 0.000000 -1.000000
vn 0.000000 0.000000 -1.000000
vn 0.000000 0.000000 -1.000000
vn 0.000000 0.000000 -1.000000
vn 0.000000 0.000000 -1.000000
vn -0.000000 0.000000 -1.000000
vn -0.000000 0.000000 -1.000000
vn -0.000000 0.000000 -1.000000
vn -0.000000 0.000000 -1.000000
vn 0.000000 0.000000 -1.000000
vn 0.000000 0.000000 -1.000000
vn 0.000000 0.000000 -1.000000
vn 0.000000 0.000000 -1.000000
vn 0.000000 0.000000 -1.000000
vn 0.000000 0.000000 -1.000000
vn 0.000000 0.000000 -1.000000
vn 0.000000 0.000000 -1.000000
vn 0.981779 0.190029 0.000000
vn 0.980951 0.194256 0.000000
vn 0.980951 0.194256 0.000000
vn 0.981779 0.190029 0.000000
vn 0.916200 -0.400720 0.000000
vn 0.748063 -0.663628 0.000000
vn 0.748063 -0.663628 0.000000
vn 0.916200 -0.400720 0.000000
vn 0.474528 -0.880241 0.000000
vn 0.474528 -0.880241 0.000000
vn 0.994668 -0.103126 0.000000
vn 0.994668 -0.103126 0.000000
vn 0.015756 -0.999876 0.000000
vn 0.015756 -0.999876 0.000000
vn 0.929047 0.369963 0.000000
vn 0.929047 0.369963 0.000000
vn 0.844950 0.534845 0.000000
vn 0.844950 0.534845 0.000000
vn 0.438749 0.898610 -0.000458
vn 0.603865 0.797086 0.000000
vn 0.603865 0.797086 0.000000
vn 0.438749 0.898610 -0.000458
vn 0.733536 0.679650 0.000000
vn 0.733536 0.679650 0.000000
vn 0.334556 0.942376 -0.000197
vn 0.409259 0.912418 -0.000597
vn 0.334556 0.942376 -0.000197
vn 0.217501 0.976060 0.000000
vn 0.217501 0.976060 0.000000
vn 0.100596 0.994927 0.000873
vn 0.100596 0.994927 0.000873
vn -0.999997 -0.002350 0.000000
vn -0.999953 0.009740 0.000000
vn -0.999953 0.009740 0.000000
vn -0.999997 -0.002350 0.000000
vn -0.042750 0.999086 0.000000
vn -0.042750 0.999086 0.000000
vn -0.706890 0.707324 0.000000
vn -0.831338 0.555768 0.000000
vn -0.831338 0.555768 0.000000
vn -0.706890 0.707324 0.000000
vn -0.923943 0.382531 0.000000
vn -0.923943 0.382531 0.000000
vn -0.555871 0.831268 -0.000000
vn -0.555871 0.831268 -0.000000
vn -0.383056 0.923725 -0.000000
vn -0.383056 0.923725 -0.000000
vn -0.980769 0.195174 0.000000
vn -0.980769 0.195174 0.000000
vn -0.194672 0.980868 0.000000
vn -0.194672 0.980868 0.000000
vn -0.923286 -0.384112 0.000000
vn -0.923286 -0.384112 0.000000
vn -0.705098 -0.709109 0.000000
vn -0.705098 -0.709110 0.000000
vn -0.382714 -0.923867 0.000000
vn -0.382714 -0.923867 0.000000
vn -0.003479 -0.999994 0.000000
vn -0.003479 -0.999994 0.000000
vn 0.000000 0.000000 1.000000
vn 0.000000 -0.000000 1.000000
vn 0.000000 -0.000000 1.000000
vn 0.000000 0.000000 1.000000
vn -0.000000 -0.000000 1.000000
vn -0.000000 0.000000 1.000000
vn 0.000000 0.000000 1.000000
vn -0.000000 -0.000000 1.000000
vn 0.000000 0.000000 1.000000
vn 0.000000 0.000000 1.000000
vn -0.000000 0.000000 1.000000
vn -0.000000 0.000000 1.000000
vn -0.000000 0.000000 1.000000
vn -0.000000 0.000000 1.000000
vn 0.000000 0.000000 1.000000
vn 0.000000 0.000000 1.000000
vn 0.000000 -0.000000 1.000000
vn 0.000000 0.000000 1.000000
vn 0.000000 0.000000 1.000000
vn -0.000000 0.000000 1.000000
vn 0.000000 -0.000000 1.000000
vn -0.000001 0.000001 1.000000
vn -0.000001 0.000001 1.000000
vn 0.000000 0.000000 1.000000
vn 0.000000 0.000000 1.000000
vn 0.000000 0.000000 1.000000
vn 0.000000 0.000000 1.000000
vn 0.000000 0.000000 1.000000
vn -0.000000 0.000000 1.000000
vn 0.000000 0.000000 1.000000
vn 0.000000 0.000000 -1.000000
vn 0.000000 0.000000 -1.000000
vn -0.000000 0.000000 -1.000000
vn -0.000000 0.000000 -1.000000
vn 0.000000 0.000000 -1.000000
vn 0.000000 0.000000 -1.000000
vn 0.000000 0.000000 -1.000000
vn 0.000000 0.000000 -1.000000
vn 0.000000 0.000000 -1.000000
vn 0.000000 0.000000 -1.000000
vn 0.000000 0.000000 -1.000000
vn 0.000000 0.000000 -1.000000
vn 0.000000 0.000000 -1.000000
vn 0.000000 0.000000 -1.000000
vn 0.000000 0.000000 -1.000000
vn -0.000000 0.000000 -1.000000
vn -0.000000 0.000000 -1.000000
vn 0.000000 0.000000 -1.000000
vn 0.000000 0.000000 -1.000000
vn -0.000000 0.000000 -1.000000
vn 0.000000 0.000000 -1.000000
vn 0.000000 0.000000 -1.000000
vn 0.000000 0.000000 -1.000000
vn 0.000000 0.000000 -1.000000
vn 0.000000 0.000000 -1.000000
vn 0.000000 0.000000 -1.000000
vn 0.000000 0.000000 -1.000000
vn 0.000000 0.000000 -1.000000
vn 0.000000 0.000000 -1.000000
vn 0.000000 0.000000 -1.000000
s 1
g robot_mount_base robot_mount
f 7/1/1 32/2/2 31/3/3 6/4/4
f 35/10/5 14/9/6 12/13/7 33/14/8
f 33/14/8 12/13/7 13/17/9 34/18/10
f 37/6/11 16/5/12 14/9/6 35/10/5
f 34/213/10 13/214/9 15/215/13 36/216/14
f 32/2/2 7/1/1 16/5/12 37/6/11
f 38/7/15 22/8/16 6/4/4 31/3/3
f 42/11/17 26/12/18 22/8/16 38/7/15
f 41/21/19 25/22/20 23/20/21 39/19/22
f 39/19/22 23/20/21 24/16/23 40/15/24
f 40/15/24 24/16/23 26/12/18 42/11/17
f 43/223/25 27/224/26 67/225/27 25/226/20 41/227/19
f 44/228/28 28/229/29 27/224/26 43/223/25
f 45/230/30 29/231/31 28/229/29 44/228/28
f 46/232/32 30/233/33 29/231/31 45/230/30
s 4
f 2/23/34 48/24/35 49/25/36 3/26/37
f 4/243/38 50/244/39 64/245/40 63/246/41
f 53/39/42 9/40/43 5/38/44 51/37/45
f 51/37/45 5/38/44 8/34/46 52/33/47
f 54/41/48 10/42/49 9/40/43 53/39/42
f 57/252/50 18/251/51 10/255/49 54/256/48
f 52/33/47 8/34/46 11/30/52 55/29/53
f 55/29/53 11/30/52 3/26/37 49/25/36
f 50/244/39 4/243/38 17/247/54 56/248/55
f 56/248/55 17/247/54 18/251/51 57/252/50
f 48/24/35 2/23/34 19/27/56 58/28/57
f 58/28/57 19/27/56 20/31/58 59/32/59
f 59/32/59 20/31/58 21/35/60 60/36/61
f 60/261/61 21/262/60 1/263/62 47/264/63
f 61/265/64 62/266/65 47/264/63 1/263/62
s 1
f 36/216/14 15/215/13 65/217/66 66/218/67
s 7
f 3/85/68 7/86/69 6/87/70 2/88/71
f 10/105/72 15/106/73 13/102/74 9/101/75
f 9/101/75 13/102/74 12/98/76 5/97/77
f 5/97/77 12/98/76 14/94/78 8/93/79
f 8/93/79 14/94/78 16/90/80 11/89/81
f 11/89/81 16/90/80 7/86/69 3/85/68
f 63/117/82 65/111/83 4/115/84
f 4/115/84 65/111/83 17/113/85
f 17/113/85 65/111/83 18/110/86
f 18/110/86 65/111/83 15/106/73 10/105/72
f 67/108/87 27/112/88 61/109/89
f 2/88/71 6/87/70 22/91/90 19/92/91
f 19/92/91 22/91/90 26/95/92 20/96/93
f 20/96/93 26/95/92 24/99/94 21/100/95
f 21/100/95 24/99/94 23/103/96 1/104/97
f 1/104/97 23/103/96 25/107/98 67/108/87 61/109/89
f 28/114/99 29/116/100 61/109/89
f 27/112/88 28/114/99 61/109/89
f 29/116/100 30/118/101 61/109/89
s 12
f 49/149/102 48/150/103 31/151/104 32/152/105
f 54/172/106 53/167/107 34/168/108 36/173/109
f 53/167/107 51/163/110 33/164/111 34/168/108
f 51/163/110 52/159/112 35/160/113 33/164/111
f 52/159/112 55/155/114 37/156/115 35/160/113
f 55/155/114 49/149/102 32/152/105 37/156/115
f 64/182/116 50/180/117 66/176/118
f 50/180/117 56/178/119 66/176/118
f 56/178/119 57/175/120 66/176/118
f 57/175/120 54/172/106 36/173/109 66/176/118
f 68/170/121 62/169/122 43/174/123
f 48/150/103 58/153/124 38/154/125 31/151/104
f 58/153/124 59/157/126 42/158/127 38/154/125
f 59/157/126 60/161/128 40/162/129 42/158/127
f 60/161/128 47/165/130 39/166/131 40/162/129
f 47/165/130 62/169/122 68/170/121 41/171/132 39/166/131
f 44/177/133 62/169/122 45/179/134
f 43/174/123 62/169/122 44/177/133
f 45/179/134 62/169/122 46/181/135
s 1
f 75/43/136 74/44/137 98/45/138 99/46/139
f 102/53/140 100/57/141 80/58/142 82/54/143
f 100/57/141 101/61/144 81/62/145 80/58/142
f 104/49/146 102/53/140 82/54/143 84/50/147
f 101/221/144 103/219/148 83/220/149 81/222/145
f 99/46/139 104/49/146 84/50/147 75/43/136
f 105/47/150 98/45/138 74/44/137 90/48/151
f 109/51/152 105/47/150 90/48/151 94/52/153
f 108/63/154 106/59/155 91/60/156 93/64/157
f 106/59/155 107/55/158 92/56/159 91/60/156
f 107/55/158 109/51/152 94/52/153 92/56/159
f 110/238/160 108/240/154 93/241/157 127/242/161 95/239/162
f 111/236/163 110/238/160 95/239/162 96/237/164
f 112/234/165 111/236/163 96/237/164 97/235/166
f 46/232/32 112/234/165 97/235/166 30/233/33
s 4
f 70/65/167 71/66/168 115/67/169 114/68/170
f 72/249/171 63/246/41 64/245/40 116/250/172
f 119/81/173 117/77/174 73/78/175 77/82/176
f 117/77/174 118/73/177 76/74/178 73/78/175
f 120/83/179 119/81/173 77/82/176 78/84/180
f 123/257/181 120/259/179 78/260/180 86/258/182
f 118/73/177 121/69/183 79/70/184 76/74/178
f 121/69/183 115/67/169 71/66/168 79/70/184
f 116/250/172 122/253/185 85/254/186 72/249/171
f 122/253/185 123/257/181 86/258/182 85/254/186
f 114/68/170 124/71/187 87/72/188 70/65/167
f 124/71/187 125/75/189 88/76/190 87/72/188
f 125/75/189 126/79/191 89/80/192 88/76/190
f 126/269/191 113/268/193 69/267/194 89/270/192
f 61/265/64 69/267/194 113/268/193 62/266/65
s 1
f 103/219/148 66/218/67 65/217/66 83/220/149
s 7
f 71/145/195 70/147/196 74/148/197 75/146/198
f 78/125/199 77/128/200 81/129/201 83/126/202
f 77/128/200 73/133/203 80/134/204 81/129/201
f 73/133/203 76/137/205 82/138/206 80/134/204
f 76/137/205 79/141/207 84/142/208 82/138/206
f 79/141/207 71/145/195 75/146/198 84/142/208
f 63/117/82 72/119/209 65/111/83
f 72/119/209 85/121/210 65/111/83
f 85/121/210 86/123/211 65/111/83
f 86/123/211 78/125/199 83/126/202 65/111/83
f 127/127/212 61/109/89 95/124/213
f 70/147/196 87/143/214 90/144/215 74/148/197
f 87/143/214 88/139/216 94/140/217 90/144/215
f 88/139/216 89/135/218 92/136/219 94/140/217
f 89/135/218 69/130/220 91/132/221 92/136/219
f 69/130/220 61/109/89 127/127/212 93/131/222 91/132/221
f 96/122/223 61/109/89 97/120/224
f 95/124/213 61/109/89 96/122/223
f 97/120/224 61/109/89 30/118/101
s 12
f 115/212/225 99/211/226 98/210/227 114/209/228
f 120/191/229 103/190/230 101/195/231 119/196/232
f 119/196/232 101/195/231 100/199/233 117/200/234
f 117/200/234 100/199/233 102/203/235 118/204/236
f 118/204/236 102/203/235 104/207/237 121/208/238
f 121/208/238 104/207/237 99/211/226 115/212/225
f 64/182/116 66/176/118 116/184/239
f 116/184/239 66/176/118 122/186/240
f 122/186/240 66/176/118 123/188/241
f 123/188/241 66/176/118 103/190/230 120/191/229
f 128/189/242 110/187/243 62/169/122
f 114/209/228 98/210/227 105/206/244 124/205/245
f 124/205/245 105/206/244 109/202/246 125/201/247
f 125/201/247 109/202/246 107/198/248 126/197/249
f 126/197/249 107/198/248 106/193/250 113/192/251
f 113/192/251 106/193/250 108/194/252 128/189/242 62/169/122
f 111/185/253 112/183/254 62/169/122
f 110/187/243 111/185/253 62/169/122
f 112/183/254 46/181/135 62/169/122
